<svg width="16" height="16" viewBox="0 0 16 16" fill="none" xmlns="http://www.w3.org/2000/svg">
<path d="M13.6568 2.34316C12.1459 0.832156 10.1369 0 8 0C5.86312 0 3.85413 0.832156 2.34316 2.34316C0.832125 3.85413 0 5.86312 0 8C0 10.1369 0.832125 12.1459 2.34316 13.6568C3.85413 15.1678 5.86312 16 8 16C10.1369 16 12.1459 15.1678 13.6568 13.6568C15.1679 12.1459 16 10.1369 16 8C16 5.86312 15.1679 3.85413 13.6568 2.34316ZM8 15.0476C4.11394 15.0476 0.952375 11.8861 0.952375 8C0.952375 4.11394 4.11394 0.952375 8 0.952375C11.8861 0.952375 15.0476 4.11394 15.0476 8C15.0476 11.8861 11.8861 15.0476 8 15.0476Z" fill="#323232"/>
<path d="M6.26965 5.88955C5.48986 5.1097 4.22102 5.10977 3.44123 5.88955C3.25527 6.07548 3.25527 6.37702 3.44123 6.56298C3.62724 6.74892 3.92877 6.74892 4.11471 6.56298C4.52321 6.15452 5.18783 6.15455 5.59627 6.56298C5.68927 6.65598 5.81112 6.70248 5.93296 6.70248C6.0548 6.70248 6.17671 6.65598 6.26965 6.56298C6.45562 6.37702 6.45562 6.07552 6.26965 5.88955Z" fill="#323232"/>
<path d="M12.5587 5.88955C11.7789 5.10977 10.5101 5.1097 9.7303 5.88955C9.54433 6.07548 9.54433 6.37702 9.7303 6.56298C9.9163 6.74892 10.2178 6.74892 10.4038 6.56298C10.8122 6.15452 11.4768 6.15448 11.8853 6.56298C11.9783 6.65598 12.1002 6.70248 12.222 6.70248C12.3439 6.70248 12.4658 6.65598 12.5587 6.56298C12.7447 6.37702 12.7447 6.07552 12.5587 5.88955Z" fill="#323232"/>
<path d="M12.2224 8.34766H3.77795C3.51495 8.34766 3.30176 8.56088 3.30176 8.82384C3.30176 11.4145 5.40948 13.5223 8.00016 13.5223C10.5909 13.5223 12.6986 11.4145 12.6986 8.82384C12.6986 8.56084 12.4854 8.34766 12.2224 8.34766ZM8.00016 12.5699C6.09585 12.5699 4.51885 11.1417 4.28426 9.30003H11.7161C11.4815 11.1417 9.90448 12.5699 8.00016 12.5699Z" fill="#323232"/>
</svg>
